<?xml version="1.0" standalone="no"?>
<!DOCTYPE svg PUBLIC "-//W3C//DTD SVG 20010904//EN"
 "http://www.w3.org/TR/2001/REC-SVG-20010904/DTD/svg10.dtd">
<svg version="1.0" xmlns="http://www.w3.org/2000/svg"
 width="1200.000000pt" height="1067.000000pt" viewBox="0 0 1200.000000 1067.000000"
 preserveAspectRatio="xMidYMid meet">

<g transform="translate(0.000000,1067.000000) scale(0.100000,-0.100000)"
fill="#000000" stroke="none">
<path d="M805 10660 c-105 -14 -238 -55 -350 -109 -155 -76 -252 -187 -332
-381 -83 -199 -133 -542 -118 -810 60 -1110 195 -2553 280 -3007 38 -197 125
-432 226 -605 237 -409 549 -695 994 -913 361 -176 738 -276 1195 -316 127
-11 669 -7 745 5 17 3 12 1 -10 -4 -22 -6 -132 -26 -245 -46 -1105 -194 -1778
-514 -2041 -969 -178 -307 -182 -674 -13 -1102 86 -217 170 -373 350 -643 412
-621 961 -1177 1460 -1477 691 -418 1288 -366 1802 156 319 324 603 827 870
1541 87 232 236 685 323 977 30 101 56 183 59 183 3 0 43 -134 89 -298 211
-742 302 -1031 428 -1347 367 -927 801 -1377 1387 -1436 294 -30 637 57 1014
256 372 197 841 554 1099 836 487 533 748 966 845 1405 32 144 32 420 0 547
-134 536 -634 952 -1467 1220 -210 68 -545 146 -793 187 -40 7 -72 13 -70 15
2 2 55 -1 118 -7 164 -14 656 -4 810 16 407 55 732 150 1045 305 581 288 976
737 1163 1321 77 242 171 1047 266 2280 79 1016 79 1241 1 1551 -47 189 -119
331 -219 437 -59 62 -86 81 -171 122 -342 167 -683 154 -1158 -44 -361 -150
-877 -472 -1300 -811 -760 -611 -1624 -1562 -2354 -2590 -249 -352 -527 -789
-668 -1052 -33 -62 -62 -113 -65 -113 -3 0 -32 51 -65 113 -93 173 -243 420
-410 673 -669 1014 -1555 2052 -2345 2746 -621 545 -1340 986 -1846 1133 -176
51 -387 73 -529 55z"/>
</g>
</svg>
